<?xml version="1.0" encoding="utf-8"?>
<!-- Generator: Adobe Illustrator 25.0.0, SVG Export Plug-In . SVG Version: 6.00 Build 0)  -->
<!DOCTYPE svg PUBLIC "-//W3C//DTD SVG 1.1//EN" "http://www.w3.org/Graphics/SVG/1.1/DTD/svg11.dtd" [
	<!ENTITY ns_extend "http://ns.adobe.com/Extensibility/1.0/">
	<!ENTITY ns_ai "http://ns.adobe.com/AdobeIllustrator/10.0/">
	<!ENTITY ns_graphs "http://ns.adobe.com/Graphs/1.0/">
	<!ENTITY ns_vars "http://ns.adobe.com/Variables/1.0/">
	<!ENTITY ns_imrep "http://ns.adobe.com/ImageReplacement/1.0/">
	<!ENTITY ns_sfw "http://ns.adobe.com/SaveForWeb/1.0/">
	<!ENTITY ns_custom "http://ns.adobe.com/GenericCustomNamespace/1.0/">
	<!ENTITY ns_adobe_xpath "http://ns.adobe.com/XPath/1.0/">
]>
<svg version="1.1" id="Icon" xmlns:x="&ns_extend;" xmlns:i="&ns_ai;" xmlns:graph="&ns_graphs;"
	 xmlns="http://www.w3.org/2000/svg" xmlns:xlink="http://www.w3.org/1999/xlink" x="0px" y="0px" viewBox="0 0 125 127.3"
	 style="enable-background:new 0 0 125 127.3;" xml:space="preserve">
<style type="text/css">
	.st0{fill:#FFFFFF;}
	.st1{opacity:0.27;fill:#FFFFFF;enable-background:new    ;}
	.st2{fill:#DCA862;}
	.st3{font-family:'Whisper-Regular';}
	.st4{font-size:27.4972px;}
	.st5{fill:none;stroke:#DCB162;stroke-miterlimit:10;}
</style>
<metadata>
	<sfw  xmlns="&ns_sfw;">
		<slices></slices>
		<sliceSourceBounds  bottomLeftOrigin="true" height="125" width="125" x="0" y="0"></sliceSourceBounds>
	</sfw>
</metadata>
<circle cx="62.5" cy="64.8" r="62.5"/>
<path class="st0" d="M62.5,2.3C28,2.3,0,30.3,0,64.8s28,62.5,62.5,62.5s62.5-28,62.5-62.5S97,2.3,62.5,2.3z M64.2,103.4v16.7
	c2.5,0.1,4.7,0.6,6.4,1.2c0.8,0.3,1,1.2,0.7,1.8c-2.9,0.4-5.9,0.7-8.9,0.7s-6-0.2-8.9-0.7c-0.3-0.6-0.1-1.5,0.7-1.8
	c1.7-0.6,4-1,6.4-1.2v-16.7C54.1,102.6,49,97,49,90.2c0-2.3,1.5-14.3,2.8-24.3h21c1.3,10,2.8,22,2.8,24.3
	C75.8,97,70.8,102.5,64.2,103.4z M78.7,121.4c0.3-0.5,0.5-1.1,0.5-1.7c0-0.1,0-0.1,0-0.1s0,0,0-0.1V55.4c0-0.2,0-0.3,0-0.5
	c-0.1-3.6-1.7-7-4.2-9.5c-2.3-2.3-6.4-6.8-6.8-10.7c-0.2-1.5,0.2-12.6,0.5-18.4c0.1-1.5-1.1-2.7-2.6-2.7h-7c-1.5,0-2.7,1.2-2.6,2.7
	c0.3,5.8,0.6,16.9,0.5,18.4c-0.4,3.8-4.5,8.4-6.8,10.7c-2.5,2.5-4.1,5.9-4.2,9.5c0,0.2,0,0.3,0,0.5v64.1c0,0,0,0,0,0.1v0.1
	c0,0.6,0.2,1.2,0.5,1.7c-24.7-7-42.7-29.7-42.7-56.6c0-32.5,26.4-58.9,58.9-58.9s58.9,26.4,58.9,58.9
	C121.4,91.7,103.3,114.4,78.7,121.4z"/>
<rect y="49.7" class="st1" width="125" height="33.3"/>
<text transform="matrix(0.8728 0 0 1 7.3574 71.9688)" class="st2 st3 st4">INJOIN</text>
<text transform="matrix(0.8728 0 0 1 7.3574 71.9688)" class="st5 st3 st4">INJOIN</text>
</svg>
